<svg width="112" height="29" fill="none" xmlns="http://www.w3.org/2000/svg"><path fill-rule="evenodd" clip-rule="evenodd" d="M24.275 5.334c1.574 2.006.843 5.845.121 7.684l.02.006h-.015l-1.752-.116V12.9c.341-3.965-.052-5.553-.434-5.822-4.583 3.313-8.677 2.26-9.942 1.934-.345-.088-.48-.123-.358-.001.372.372 1.219.818 1.822 1.136.137.073.261.138.365.195-4.975.057-6.975-2.338-7.563-3.043A2.83 2.83 0 006.4 7.14c-.287-.287-1.901-1.267-2.408.602-.492 1.811-.18 3.936-.016 5.057.014.097.016.1.016.13l-1.617.096h-.004c-2.149-4.97-.533-7.755.923-8.8 0-2.44 2.98-4.817 6.75-3.962 4.832 1.377 6.302.921 8.03.384.699-.216 1.44-.446 2.46-.574C25.222-.513 26.8 2.566 27 4.161c-.786-.456-2.144.57-2.725 1.173zM12.337 1.587c-1.214-.422-4.344-.87-5.99.824-.363.375-.791 1.078-.791 1.078s-.73 1.33-1.3.76c-.57-.57.76-2.282 1.807-2.789 1.045-.507 3.644-1.394 6.274.127z" fill="#754FFE"/><path d="M10.078 13.5H3.106c-.875 0-1.585.71-1.585 1.585v3.232c0 .875.71 1.585 1.585 1.585h6.972c.875 0 1.585-.71 1.585-1.585v-3.232c0-.875-.71-1.585-1.585-1.585z" stroke="#754FFE" stroke-width="1.268"/><path d="M.824 14.61H.38a.349.349 0 00-.349.348v1.014c0 .193.156.349.349.349h.444a.349.349 0 00.348-.349v-1.014a.349.349 0 00-.348-.349z" fill="#754FFE" stroke="#754FFE" stroke-width=".063"/><path d="M16.733 13.5h6.971c.876 0 1.585.71 1.585 1.585v3.232c0 .875-.71 1.585-1.585 1.585h-6.971c-.876 0-1.585-.71-1.585-1.585v-3.232c0-.875.71-1.585 1.585-1.585z" stroke="#754FFE" stroke-width="1.268"/><path d="M25.986 14.61h.444c.192 0 .348.155.348.348v1.014a.349.349 0 01-.348.349h-.444a.349.349 0 01-.349-.349v-1.014a.35.35 0 01.35-.349zm-13.691.95h2.219c.192 0 .348.156.348.349v1.014a.349.349 0 01-.348.348h-2.219a.348.348 0 01-.348-.348v-1.014c0-.193.156-.349.348-.349z" fill="#754FFE" stroke="#754FFE" stroke-width=".063"/><path d="M9.933 16.394c0 .315-.17.57-.38.57s-.38-.255-.38-.57c0-.315.17-.57.38-.57s.38.255.38.57zm7.036 0c0 .315.17.57.38.57s.38-.255.38-.57c0-.315-.17-.57-.38-.57s-.38.255-.38.57zm-2.693 3.708c-.634.507-1.49.253-1.711 0 .063.317.304.76.887.76s.792-.507.824-.76z" fill="#754FFE"/><path fill-rule="evenodd" clip-rule="evenodd" d="M12.131 22.411a.222.222 0 01.265-.169l2.239.493a.222.222 0 11-.096.433l-2.239-.493a.222.222 0 01-.169-.264z" fill="#754FFE"/><path d="M13.42 27.675c-4.411.051-7.648-4.014-8.715-6.053-.158-.302-.285-.348-.38-.285-.152.102-.042.307 0 .412.532 1.243 1.257 2.293 1.553 2.662-1.04 1.724-1.384 3.444-1.426 4.088 1.724-1.698 3.465-1.616 4.12-1.362 5.134 2.662 7.986.792 9.602 0 1.293-.634 3.306.602 4.151 1.299-.101-1.572-.95-3.296-1.362-3.961.665-.888 1.204-1.965 1.49-2.504.227-.43.158-.602.094-.634-.152-.076-.338.159-.412.285-.475.793-3.2 5.99-8.715 6.053z" fill="#754FFE"/><path d="M45.273 10.86h4.375C49.09 6.835 45.54 4 40.938 4c-5.38 0-9.526 3.878-9.526 10.48 0 6.443 3.878 10.44 9.615 10.44 5.14 0 8.81-3.251 8.81-8.61v-2.566h-8.522v3.242h4.376c-.06 2.525-1.78 4.126-4.644 4.126-3.231 0-5.27-2.416-5.27-6.672 0-4.236 2.118-6.632 5.23-6.632 2.218 0 3.719 1.144 4.266 3.053zm13.559 14.08c3.778 0 6.324-1.84 6.92-4.673l-3.917-.259c-.428 1.164-1.522 1.77-2.934 1.77-2.118 0-3.46-1.402-3.46-3.679v-.01h10.4v-1.163c0-5.19-3.141-7.756-7.178-7.756-4.495 0-7.408 3.192-7.408 7.905 0 4.843 2.873 7.865 7.577 7.865zm-3.391-9.476c.09-1.74 1.412-3.132 3.291-3.132 1.84 0 3.112 1.313 3.122 3.132h-6.413zm19.005 9.476c3.778 0 6.324-1.84 6.92-4.673l-3.917-.259c-.428 1.164-1.522 1.77-2.934 1.77-2.118 0-3.46-1.402-3.46-3.679v-.01h10.4v-1.163c0-5.19-3.141-7.756-7.178-7.756-4.495 0-7.408 3.192-7.408 7.905 0 4.843 2.874 7.865 7.577 7.865zm-3.39-9.476c.089-1.74 1.411-3.132 3.29-3.132 1.84 0 3.113 1.313 3.123 3.132h-6.414zM83.1 24.642h4.235V19.79l1.144-1.303 4.166 6.155h4.962l-5.956-8.66 5.667-6.613h-4.862l-4.892 5.797h-.229V4.278H83.1v20.364zm27.884-10.918c-.378-2.813-2.645-4.554-6.503-4.554-3.907 0-6.483 1.81-6.473 4.753-.01 2.287 1.432 3.769 4.415 4.365l2.645.527c1.332.269 1.939.756 1.959 1.522-.02.904-1.005 1.55-2.486 1.55-1.511 0-2.516-.646-2.774-1.889l-4.166.22c.397 2.922 2.883 4.722 6.93 4.722 3.957 0 6.791-2.018 6.801-5.031-.01-2.207-1.452-3.53-4.415-4.136l-2.764-.557c-1.422-.308-1.949-.796-1.939-1.531-.01-.915 1.024-1.512 2.337-1.512 1.471 0 2.346.806 2.555 1.79l3.878-.239z" fill="#18113C"/></svg>