<svg width="173" height="50" fill="none" xmlns="http://www.w3.org/2000/svg"><path d="M165.14 50H7.057C3.577 50 .74 47.197.74 43.756V6.27C.74 2.83 3.576.025 7.057.025H165.14c3.482 0 6.317 2.804 6.317 6.244v37.487c0 3.44-2.861 6.244-6.317 6.244z" fill="#000"/><path d="M165.14.997c2.94 0 5.312 2.344 5.312 5.25v37.487c0 2.905-2.372 5.25-5.312 5.25H7.057c-2.939 0-5.311-2.345-5.311-5.25V6.246c0-2.905 2.372-5.25 5.311-5.25H165.14zm0-.994H7.057C3.577.003.74 2.806.74 6.246v37.488c0 3.44 2.837 6.243 6.317 6.243H165.14c3.481 0 6.317-2.803 6.317-6.243V6.246c0-3.44-2.861-6.243-6.317-6.243z" fill="#000"/><path d="M60.693 12.819c0 1.045-.31 1.886-.928 2.497-.722.74-1.65 1.121-2.785 1.121-1.083 0-2.037-.382-2.785-1.12-.773-.765-1.16-1.683-1.16-2.804 0-1.121.387-2.039 1.16-2.778.774-.739 1.702-1.121 2.785-1.121.542 0 1.057.102 1.547.306.49.203.903.484 1.186.84l-.67.663c-.516-.586-1.186-.892-2.089-.892-.799 0-1.495.28-2.062.841-.594.56-.877 1.274-.877 2.166 0 .892.283 1.606.877 2.167.593.56 1.289.84 2.062.84.851 0 1.547-.28 2.115-.84.36-.357.593-.867.644-1.53h-2.759v-.891h3.662c.077.152.077.33.077.535zm5.831-3.135h-3.455v2.37h3.12v.892h-3.12v2.37h3.455v.917h-4.435V8.741h4.435v.943zm4.117 6.575h-.98V9.684h-2.114v-.918h5.208v.918h-2.114v6.575zm5.881 0V8.766h.98v7.493h-.98zm5.311 0h-.98V9.684H78.74v-.918h5.209v.918h-2.115v6.575zm11.992-.969c-.748.765-1.676 1.147-2.785 1.147-1.11 0-2.037-.382-2.785-1.147-.748-.764-1.108-1.681-1.108-2.777s.36-2.04 1.108-2.778c.748-.765 1.676-1.147 2.785-1.147 1.109 0 2.037.382 2.784 1.147.749.764 1.135 1.682 1.135 2.778-.026 1.095-.386 2.013-1.135 2.777zm-4.848-.637c.567.56 1.238.841 2.063.841a2.84 2.84 0 002.062-.84c.568-.561.851-1.275.851-2.167 0-.892-.283-1.605-.85-2.166-.568-.56-1.238-.841-2.063-.841-.825 0-1.496.28-2.063.841-.567.56-.85 1.274-.85 2.166 0 .892.283 1.606.85 2.166zm7.32 1.606V8.766h1.187l3.686 5.836h.052l-.052-1.452V8.766h.98v7.493h-1.006l-3.867-6.116h-.052l.052 1.452v4.664h-.98z" fill="#fff" stroke="#fff" stroke-width=".199" stroke-miterlimit="10"/><path d="M86.893 27.192c-2.965 0-5.389 2.242-5.389 5.326 0 3.058 2.424 5.326 5.39 5.326 2.965 0 5.414-2.268 5.414-5.326 0-3.084-2.424-5.326-5.415-5.326zm0 8.537c-1.624 0-3.042-1.325-3.042-3.211 0-1.912 1.392-3.211 3.042-3.211s3.042 1.3 3.042 3.21c0 1.887-1.418 3.212-3.042 3.212zm-11.758-8.537c-2.965 0-5.388 2.242-5.388 5.326 0 3.058 2.423 5.326 5.388 5.326 2.966 0 5.39-2.268 5.39-5.326 0-3.084-2.424-5.326-5.39-5.326zm0 8.537c-1.624 0-3.042-1.325-3.042-3.211 0-1.912 1.418-3.211 3.042-3.211 1.625 0 3.043 1.3 3.043 3.21-.026 1.887-1.418 3.212-3.043 3.212zM61.11 28.823v2.268h5.466c-.155 1.274-.593 2.191-1.237 2.828-.8.79-2.037 1.657-4.23 1.657-3.351 0-5.981-2.676-5.981-5.989 0-3.313 2.63-5.989 5.982-5.989 1.805 0 3.146.714 4.125 1.606l1.599-1.58c-1.367-1.3-3.171-2.268-5.724-2.268-4.615 0-8.483 3.695-8.483 8.257 0 4.561 3.868 8.257 8.483 8.257 2.501 0 4.357-.816 5.827-2.32 1.496-1.478 1.985-3.593 1.985-5.275 0-.535-.051-1.02-.128-1.401 0-.051-7.684-.051-7.684-.051zm57.29 1.757c-.438-1.198-1.804-3.39-4.615-3.39-2.759 0-5.079 2.167-5.079 5.327 0 2.981 2.268 5.326 5.337 5.326 2.475 0 3.893-1.478 4.486-2.345l-1.83-1.197c-.619.892-1.444 1.478-2.656 1.478-1.186 0-2.063-.535-2.604-1.606l7.193-2.93c.026-.077-.232-.663-.232-.663zm-7.322 1.758c-.052-2.038 1.598-3.109 2.81-3.109.928 0 1.728.459 2.011 1.122-.025.025-4.821 1.987-4.821 1.987zm-5.854 5.174h2.373V21.89h-2.373v15.622zm-3.867-9.15h-.077c-.542-.61-1.547-1.171-2.837-1.171-2.681 0-5.156 2.344-5.156 5.326 0 2.981 2.475 5.3 5.156 5.3 1.29 0 2.295-.56 2.837-1.197h.077v.764c0 2.039-1.108 3.135-2.862 3.135-1.444 0-2.346-1.02-2.707-1.886l-2.063.84c.593 1.403 2.165 3.136 4.77 3.136 2.785 0 5.105-1.606 5.105-5.53v-9.557h-2.243v.84zM98.65 35.73c-1.624 0-2.99-1.35-2.99-3.211 0-1.886 1.366-3.237 2.99-3.237 1.6 0 2.863 1.376 2.863 3.237 0 1.86-1.263 3.21-2.863 3.21zm30.839-13.864h-5.647v15.622h2.346v-5.912h3.301c2.629 0 5.182-1.886 5.182-4.842 0-2.982-2.579-4.868-5.182-4.868zm.052 7.544h-3.353v-5.352h3.353c1.752 0 2.758 1.453 2.758 2.676 0 1.198-1.006 2.676-2.758 2.676zm14.593-2.243c-1.701 0-3.481.74-4.203 2.396l2.089.866c.438-.866 1.289-1.147 2.165-1.147 1.213 0 2.476.74 2.476 2.014v.152c-.438-.254-1.341-.611-2.476-.611-2.243 0-4.563 1.223-4.563 3.517 0 2.09 1.856 3.44 3.919 3.44 1.599 0 2.476-.713 3.017-1.53h.077v1.199h2.269v-5.99c.026-2.751-2.062-4.306-4.77-4.306zm-.284 8.563c-.773 0-1.856-.383-1.856-1.325 0-1.198 1.34-1.682 2.501-1.682 1.031 0 1.522.229 2.166.535a2.862 2.862 0 01-2.811 2.472zm13.383-8.232l-2.708 6.78h-.077l-2.811-6.78h-2.553l4.203 9.455-2.397 5.275h2.475l6.497-14.73h-2.629zM135.96 37.513h2.373V21.89h-2.373v15.622z" fill="#fff"/><path d="M13.921 9.429c-.36.382-.593.994-.593 1.758v27.65c0 .765.207 1.377.593 1.76l.103.075 15.677-15.494v-.357L14.024 9.327l-.103.102z" fill="url(#paint0_linear_5160_16702)"/><path d="M34.913 30.352l-5.208-5.174v-.357l5.234-5.173.13.077 6.187 3.49c1.754.995 1.754 2.626 0 3.62L35.068 30.3c-.026-.025-.154.052-.154.052z" fill="url(#paint1_linear_5160_16702)"/><path d="M35.036 30.275L29.698 25 13.944 40.571c.593.612 1.547.688 2.63.076l18.462-10.372z" fill="url(#paint2_linear_5160_16702)"/><path d="M35.031 19.725L16.544 9.353c-1.083-.612-2.037-.535-2.63.076L29.668 25l5.363-5.275z" fill="url(#paint3_linear_5160_16702)"/><defs><linearGradient id="paint0_linear_5160_16702" x1="28.295" y1="39.115" x2="2.325" y2="12.528" gradientUnits="userSpaceOnUse"><stop stop-color="#00A0FF"/><stop offset=".007" stop-color="#00A1FF"/><stop offset=".26" stop-color="#00BEFF"/><stop offset=".512" stop-color="#00D2FF"/><stop offset=".76" stop-color="#00DFFF"/><stop offset="1" stop-color="#00E3FF"/></linearGradient><linearGradient id="paint1_linear_5160_16702" x1="43.521" y1="25.002" x2="5.177" y2="25.002" gradientUnits="userSpaceOnUse"><stop stop-color="#FFE000"/><stop offset=".409" stop-color="#FFBD00"/><stop offset=".775" stop-color="orange"/><stop offset="1" stop-color="#FF9C00"/></linearGradient><linearGradient id="paint2_linear_5160_16702" x1="21.569" y1="32.562" x2="-13.649" y2="-3.492" gradientUnits="userSpaceOnUse"><stop stop-color="#FF3A44"/><stop offset="1" stop-color="#C31162"/></linearGradient><linearGradient id="paint3_linear_5160_16702" x1="-.602" y1="39.353" x2="15.125" y2="23.253" gradientUnits="userSpaceOnUse"><stop stop-color="#32A071"/><stop offset=".069" stop-color="#2DA771"/><stop offset=".476" stop-color="#15CF74"/><stop offset=".801" stop-color="#06E775"/><stop offset="1" stop-color="#00F076"/></linearGradient></defs></svg>